<svg width="32" height="32" viewBox="0 0 32 32" fill="none" xmlns="http://www.w3.org/2000/svg">
<path d="M6.96453 8.11772L7.35845 9.03687L6.96453 8.11772C6.1453 8.46883 5.65726 9.31966 5.76781 10.2041L6.71413 17.7746C6.93428 19.5358 7.81526 21.1477 9.17879 22.2839L14.7197 26.9014C15.4614 27.5195 16.5388 27.5195 17.2804 26.9014L22.8214 22.2839C24.1849 21.1477 25.0659 19.5358 25.286 17.7746L26.2323 10.2041C26.3429 9.31967 25.8549 8.46883 25.0356 8.11772L16.7879 4.58299C16.2848 4.36738 15.7153 4.36738 15.2122 4.58299L6.96453 8.11772Z" stroke="#7E7E7E" stroke-width="2" stroke-linecap="round"/>
<path d="M11.9999 16L15.5687 19.5687C15.7918 19.7918 16.1632 19.7551 16.3382 19.4925L21.3333 12" stroke="#7E7E7E" stroke-width="2" stroke-linecap="round"/>
</svg>
