<svg width="1311" height="944" viewBox="0 0 1311 944" fill="none" xmlns="http://www.w3.org/2000/svg">
<rect width="1311" height="944" fill="#FAFAFA"/>
<g filter="url(#filter0_d)">
<path d="M578.31 309.64H70.3101V857.64H578.31V309.64Z" fill="#FFBE21"/>
<path d="M608.31 827.64H40.3101V857.64H608.31V827.64Z" fill="#FFBE21"/>
<path d="M548.31 339.64H100.31V827.64H548.31V339.64Z" fill="#FEFEFE"/>
<path d="M570.31 518.64H78.3101V548.64H570.31V518.64Z" fill="#FFBE21"/>
<mask id="path-5-inside-1" fill="white">
<path d="M184.77 563.89C184.77 563.89 207.42 565.14 224.31 555.64C240.31 546.64 242.89 532.54 237.31 504.64C237.31 504.64 247.31 498.64 246.31 492.64C245.66 488.69 234.31 484.64 234.31 484.64C232.89 477.02 231.09 465.5 228.17 453.72C220.866 455.156 213.445 455.919 206 456C183.68 481.11 159.31 482.64 159.31 482.64C155.781 477.368 150.994 473.058 145.38 470.1L112.09 483.37C111.773 484.446 111.513 485.537 111.31 486.64C106.68 512.89 139.31 522.64 139.31 522.64C132.73 547.78 111.31 557.64 95.2305 561.51L96.5905 574H186.45L184.77 563.89Z"/>
</mask>
<path d="M184.77 563.89C184.77 563.89 207.42 565.14 224.31 555.64C240.31 546.64 242.89 532.54 237.31 504.64C237.31 504.64 247.31 498.64 246.31 492.64C245.66 488.69 234.31 484.64 234.31 484.64C232.89 477.02 231.09 465.5 228.17 453.72C220.866 455.156 213.445 455.919 206 456C183.68 481.11 159.31 482.64 159.31 482.64C155.781 477.368 150.994 473.058 145.38 470.1L112.09 483.37C111.773 484.446 111.513 485.537 111.31 486.64C106.68 512.89 139.31 522.64 139.31 522.64C132.73 547.78 111.31 557.64 95.2305 561.51L96.5905 574H186.45L184.77 563.89Z" fill="white" stroke="black" stroke-width="2" mask="url(#path-5-inside-1)"/>
<mask id="path-6-inside-2" fill="white">
<path d="M400 763C478 740 483 556 483 556L442.31 503.64C442.31 503.64 450 466 442 459C432.34 450.55 420.17 477 407 510C393.16 544.67 367.31 646.64 365.31 653.64C365.31 653.64 345.91 644.52 322.92 633.92L319.66 644.64L290 744.63C322.52 757.94 368.61 772.26 400 763Z"/>
</mask>
<path d="M400 763C478 740 483 556 483 556L442.31 503.64C442.31 503.64 450 466 442 459C432.34 450.55 420.17 477 407 510C393.16 544.67 367.31 646.64 365.31 653.64C365.31 653.64 345.91 644.52 322.92 633.92L319.66 644.64L290 744.63C322.52 757.94 368.61 772.26 400 763Z" fill="white" stroke="black" stroke-width="2" mask="url(#path-6-inside-2)"/>
<path d="M139.31 522.64C139.31 522.64 106.68 512.89 111.31 486.64C111.513 485.537 111.773 484.446 112.09 483.37L87.8403 493C87.8403 493.69 87.9503 494.34 88.0003 495L95.2303 561.51C111.34 557.64 132.73 547.78 139.31 522.64Z" fill="#34A853"/>
<path d="M159.31 482.64C159.31 482.64 183.68 481.11 206 456C213.445 455.919 220.866 455.156 228.17 453.72C226.93 448.72 225.48 443.67 223.76 438.84L145.38 470.1C150.994 473.058 155.781 477.368 159.31 482.64V482.64Z" fill="#34A853"/>
<path d="M112.09 483.37L145.38 470.1C131.63 463.12 116.54 468.21 112.09 483.37Z" fill="#30242A"/>
<path d="M145.38 470.1L223.76 438.84C221.03 431.15 217.63 424.04 213.31 418.64C196.57 397.71 155.47 382.52 119.19 409.03C84.26 434.56 86.39 475.13 87.84 493.03L112.09 483.36C116.54 468.21 131.63 463.12 145.38 470.1Z" fill="#30242A"/>
<path d="M239 618L236.597 597.42C208.794 589.39 188.704 589 188.704 589L186.18 574H95.4106L96.834 587C87.8394 586.974 78.8599 587.733 70 589.27L82.7002 618H239Z" fill="#4285F4"/>
<path d="M110.17 678H245.77L242.3 648H97.0703L110.17 678Z" fill="#4285F4"/>
<path d="M123.28 708L136.38 738H252.5L251.31 726.64L251.41 726.69L249.24 708H123.28Z" fill="#4285F4"/>
<path d="M154.396 787.399C154.396 787.399 222.566 794.17 259 803L256.197 763H147L154.396 787.399Z" fill="#4285F4"/>
<path d="M257 648L252.494 618H52L68.9614 648H257Z" fill="#4285F4"/>
<path d="M110 678L123.103 708H249L245.532 678H110Z" fill="#4285F4"/>
<path d="M72.6936 626.296L91.5964 795H257L252.041 603H70L72.6936 626.296Z" fill="#4285F4"/>
<path d="M322.85 633.88C311.49 628.64 299.26 623 288.07 618C278.26 613.58 269.24 609.58 262.31 606.64C253.878 603.055 245.239 599.976 236.44 597.42L238.82 618L242.3 648L245.77 678L249.24 708L251.41 726.69C252.41 727.21 261.22 731.96 274.57 738C279.01 740 283.95 742.16 289.26 744.34L289.98 744.63L319.66 644.63L322.92 633.91L322.85 633.88Z" fill="#4285F4"/>
<mask id="path-19-inside-3" fill="white">
<path d="M151.24 768L139.31 741.64L137.61 738H136.38L139 744L41.5503 779.44C57.9703 812.14 76.5503 840.2 90.3103 853.64C138.31 900.64 264.01 871.36 264.01 871.36C264.01 871.36 278.31 882.64 297.31 886.64C331.31 953.64 350.01 930.36 350.01 930.36C350.01 930.36 362.01 943.36 371.01 929.36C389.01 930.36 388.01 919.36 372.01 881.36C390.01 903.36 407.93 903.71 408.31 897.64C409.31 881.64 364.31 828.64 323.01 811.36C298.17 800.97 258.31 793.64 258.31 793.64C223.48 788.03 158.31 783.64 158.31 783.64L151.24 768Z"/>
</mask>
<path d="M151.24 768L139.31 741.64L137.61 738H136.38L139 744L41.5503 779.44C57.9703 812.14 76.5503 840.2 90.3103 853.64C138.31 900.64 264.01 871.36 264.01 871.36C264.01 871.36 278.31 882.64 297.31 886.64C331.31 953.64 350.01 930.36 350.01 930.36C350.01 930.36 362.01 943.36 371.01 929.36C389.01 930.36 388.01 919.36 372.01 881.36C390.01 903.36 407.93 903.71 408.31 897.64C409.31 881.64 364.31 828.64 323.01 811.36C298.17 800.97 258.31 793.64 258.31 793.64C223.48 788.03 158.31 783.64 158.31 783.64L151.24 768Z" fill="white" stroke="black" stroke-width="2" mask="url(#path-19-inside-3)"/>
<path d="M71.4202 589.27C52.8702 592.45 29.0802 600 15.3402 618C9.23023 626 5.10023 636 4.34023 648.64C2.07023 685.05 19.9102 736.28 41.5802 779.44L139 744L71.4202 589.27Z" fill="#4285F4"/>
<path d="M168.01 575.36L170.01 593" stroke="#30242A" stroke-width="4" stroke-linecap="round" stroke-linejoin="round"/>
<path d="M151.01 575.36L153.01 593" stroke="#30242A" stroke-width="4" stroke-linecap="round" stroke-linejoin="round"/>
<path d="M184.83 566C178.298 565.513 171.913 563.817 166 561" stroke="#30242A" stroke-width="4" stroke-miterlimit="10" stroke-linecap="round"/>
<path d="M374.17 880.86C370.32 872.32 365.91 863.06 361.94 856.04" stroke="#30242A" stroke-width="4" stroke-miterlimit="10" stroke-linecap="round"/>
<path d="M343.16 866C355.65 887.94 365.3 912.64 371.16 929.31" stroke="#30242A" stroke-width="4" stroke-miterlimit="10" stroke-linecap="round"/>
<path d="M321 879C330 895.51 340.23 915.43 347.61 930.27" stroke="#30242A" stroke-width="4" stroke-miterlimit="10" stroke-linecap="round"/>
<path d="M252.61 726.27L249 689" stroke="#30242A" stroke-width="4" stroke-linecap="round" stroke-linejoin="round"/>
<path d="M363.05 653.24L356.31 679.64" stroke="#30242A" stroke-width="4" stroke-miterlimit="10" stroke-linecap="round"/>
<path d="M97.5903 585H110" stroke="#30242A" stroke-width="4" stroke-linecap="round" stroke-linejoin="round"/>
<path d="M191.13 589.1L193.01 600.36" stroke="#30242A" stroke-width="4" stroke-linecap="round" stroke-linejoin="round"/>
<path d="M212.61 416.27L86.6104 464.27" stroke="#0060FF" stroke-width="4" stroke-miterlimit="10" stroke-linecap="round"/>
<path d="M156.61 781.27L129.31 779.64" stroke="#30242A" stroke-width="4" stroke-miterlimit="10" stroke-linecap="round"/>
<path d="M157.61 782.27L120 699" stroke="#30242A" stroke-width="4" stroke-linecap="round" stroke-linejoin="round"/>
<path d="M445.74 494.9C443.44 503.97 440.22 515.9 437 525C437 525 454 555 436 590" stroke="#30242A" stroke-width="4" stroke-miterlimit="10" stroke-linecap="round"/>
<path d="M485.91 790.76H442.52C442.223 790.76 441.938 790.642 441.728 790.432C441.518 790.222 441.4 789.937 441.4 789.64V757.84C441.4 757.543 441.518 757.258 441.728 757.048C441.938 756.838 442.223 756.72 442.52 756.72H485.91C490.419 756.72 494.743 758.511 497.931 761.699C501.119 764.887 502.91 769.211 502.91 773.72C502.915 775.956 502.479 778.171 501.628 780.238C500.776 782.305 499.524 784.184 497.945 785.767C496.366 787.349 494.49 788.605 492.425 789.462C490.36 790.319 488.146 790.76 485.91 790.76V790.76Z" stroke="#DF382B" stroke-width="8" stroke-miterlimit="10"/>
<path d="M429.56 751.54C393.75 751.54 377.19 723 377.19 723L401.27 827.73H457.85L481.92 723C476.332 731.809 468.593 739.052 459.433 744.045C450.273 749.038 439.993 751.617 429.56 751.54V751.54Z" fill="#DF382B"/>
<path d="M429.56 751.54C439.993 751.617 450.273 749.038 459.433 744.045C468.593 739.052 476.332 731.809 481.92 723H377.19C377.19 723 393.75 751.54 429.56 751.54Z" fill="#8C4D3E"/>
<path d="M146 501L131 490" stroke="#30242A" stroke-width="4" stroke-miterlimit="10" stroke-linecap="round"/>
<path d="M216.68 488.66C218.972 488.66 220.83 486.802 220.83 484.51C220.83 482.218 218.972 480.36 216.68 480.36C214.388 480.36 212.53 482.218 212.53 484.51C212.53 486.802 214.388 488.66 216.68 488.66Z" fill="#30242A"/>
<path d="M60.54 502.26L251.09 430.01" stroke="#30242A" stroke-width="4" stroke-linecap="round" stroke-linejoin="round"/>
<path d="M212.69 512.77C213.69 514.77 219.26 519.37 224.64 516.24" stroke="#30242A" stroke-width="4" stroke-miterlimit="10" stroke-linecap="round"/>
<path d="M479.78 591.06C477.36 588.62 475.5 584.5 476 578C476 578 467 583 461 578C453.12 571.43 456 562 456 562C456 562 447 565 443 558C438.66 550.41 444 540 444 540C444 540 436.81 541 435 534C432.7 525.14 437.51 517.08 442.57 511.25" stroke="#30242A" stroke-width="8" stroke-miterlimit="10" stroke-linecap="round"/>
<path d="M322.883 403.755L464.743 349.868C474.429 346.188 479.298 335.354 475.618 325.668L436.635 223.043C432.956 213.358 422.121 208.489 412.436 212.168L270.576 266.055C260.89 269.734 256.021 280.569 259.7 290.254L298.684 392.88C302.363 402.565 313.198 407.434 322.883 403.755Z" fill="#0060FF"/>
<path d="M490.265 651.362C491.834 655.492 496.454 657.569 500.584 656C504.715 654.431 506.791 649.811 505.222 645.68L401.779 373.366C400.211 369.235 395.59 367.159 391.46 368.728C387.33 370.297 385.253 374.917 386.822 379.047L490.265 651.362Z" fill="#DF382B"/>
<g filter="url(#filter1_d)">
<mask id="path-45-inside-4" fill="white">
<path d="M384.43 276.12C379.834 274.149 374.643 274.082 369.997 275.934C365.351 277.787 361.63 281.407 359.65 286L357.47 291.08L352.39 288.89C347.811 286.991 342.668 286.971 338.074 288.835C333.48 290.699 329.805 294.297 327.844 298.851C325.883 303.404 325.793 308.546 327.595 313.165C329.397 317.784 332.944 321.507 337.47 323.53L342.55 325.72L377.18 340.64L392.11 306L394.29 300.93C395.276 298.654 395.802 296.206 395.84 293.726C395.878 291.246 395.425 288.783 394.51 286.479C393.594 284.174 392.232 282.072 390.502 280.295C388.773 278.517 386.709 277.099 384.43 276.12V276.12Z"/>
</mask>
<path d="M384.43 276.12C379.834 274.149 374.643 274.082 369.997 275.934C365.351 277.787 361.63 281.407 359.65 286L357.47 291.08L352.39 288.89C347.811 286.991 342.668 286.971 338.074 288.835C333.48 290.699 329.805 294.297 327.844 298.851C325.883 303.404 325.793 308.546 327.595 313.165C329.397 317.784 332.944 321.507 337.47 323.53L342.55 325.72L377.18 340.64L392.11 306L394.29 300.93C395.276 298.654 395.802 296.206 395.84 293.726C395.878 291.246 395.425 288.783 394.51 286.479C393.594 284.174 392.232 282.072 390.502 280.295C388.773 278.517 386.709 277.099 384.43 276.12V276.12Z" fill="white"/>
<path d="M384.43 276.12C379.834 274.149 374.643 274.082 369.997 275.934C365.351 277.787 361.63 281.407 359.65 286L357.47 291.08L352.39 288.89C347.811 286.991 342.668 286.971 338.074 288.835C333.48 290.699 329.805 294.297 327.844 298.851C325.883 303.404 325.793 308.546 327.595 313.165C329.397 317.784 332.944 321.507 337.47 323.53L342.55 325.72L377.18 340.64L392.11 306L394.29 300.93C395.276 298.654 395.802 296.206 395.84 293.726C395.878 291.246 395.425 288.783 394.51 286.479C393.594 284.174 392.232 282.072 390.502 280.295C388.773 278.517 386.709 277.099 384.43 276.12V276.12Z" stroke="#0060FF" stroke-width="2" mask="url(#path-45-inside-4)"/>
</g>
<mask id="path-46-inside-5" fill="white">
<path d="M470.29 493.12C479.6 498.71 477.6 509.54 477.6 509.54C477.6 509.54 496.33 506.97 495.78 526.12C495.78 526.12 510.71 532.98 503.86 547.91C503.86 547.91 514.13 550.59 509 567C504 583 493.77 593.09 487 594C483.42 594.48 475 591 476 578C476 578 467 583 461 578C453.12 571.43 456 562 456 562C456 562 447 565 443 558C438.66 550.41 444 540 444 540C444 540 436.81 541 435 534C431.16 519.23 447.09 506.69 451 503L448 495C448 495 461 487.54 470.29 493.12Z"/>
</mask>
<path d="M470.29 493.12C479.6 498.71 477.6 509.54 477.6 509.54C477.6 509.54 496.33 506.97 495.78 526.12C495.78 526.12 510.71 532.98 503.86 547.91C503.86 547.91 514.13 550.59 509 567C504 583 493.77 593.09 487 594C483.42 594.48 475 591 476 578C476 578 467 583 461 578C453.12 571.43 456 562 456 562C456 562 447 565 443 558C438.66 550.41 444 540 444 540C444 540 436.81 541 435 534C431.16 519.23 447.09 506.69 451 503L448 495C448 495 461 487.54 470.29 493.12Z" fill="white" stroke="black" stroke-width="2" mask="url(#path-46-inside-5)"/>
<path d="M440.51 543.61C451.86 536.93 469.06 524.61 478.72 509.87" stroke="#30242A" stroke-width="4" stroke-miterlimit="10" stroke-linecap="round"/>
<path d="M453.69 564.43C470.176 554.878 484.694 542.277 496.47 527.3" stroke="#30242A" stroke-width="4" stroke-miterlimit="10" stroke-linecap="round"/>
<path d="M476.61 579.27C484.61 573.27 495.61 562.27 504.89 549.62" stroke="#30242A" stroke-width="4" stroke-miterlimit="10" stroke-linecap="round"/>
<path d="M1214.31 0.640015H706.31V548.64H1214.31V0.640015Z" fill="#FA81A2"/>
<path d="M1244.31 518.64H676.31V548.64H1244.31V518.64Z" fill="#FA81A2"/>
<path d="M1184.31 30.64H736.31V518.64H1184.31V30.64Z" fill="#FEFEFE"/>
<path d="M1206.31 209.64H714.31V239.64H1206.31V209.64Z" fill="#FA81A2"/>
<path d="M914.335 181.473L925.311 211.532L804.137 255.779C800.151 257.235 795.75 257.047 791.902 255.258C788.054 253.468 785.075 250.224 783.62 246.238C782.164 242.252 782.352 237.851 784.141 234.003C785.93 230.155 789.175 227.176 793.161 225.72L914.335 181.473Z" fill="#DF382B"/>
<path d="M818.713 216.391L829.69 246.45L804.14 255.779C800.154 257.235 795.753 257.047 791.905 255.258C788.057 253.469 785.078 250.224 783.622 246.238C782.167 242.252 782.354 237.851 784.144 234.003C785.933 230.156 789.177 227.176 793.164 225.721L818.713 216.391Z" fill="#DF382B"/>
<path d="M937.71 224.98C957.04 224.98 972.71 209.31 972.71 189.98C972.71 170.65 957.04 154.98 937.71 154.98C918.38 154.98 902.71 170.65 902.71 189.98C902.71 209.31 918.38 224.98 937.71 224.98Z" fill="#0060FF"/>
<path d="M784 246C742 261 689.37 283.16 655 240C612 186 696 130 719 201C744.94 281.08 586.32 337.43 627 410C664 476 780.48 404.88 848 429C904 449 905.46 517.25 905.46 517.25" stroke="#30242A" stroke-width="4" stroke-miterlimit="10" stroke-linecap="round"/>
<mask id="path-58-inside-6" fill="white">
<path d="M897.31 187.64C895.31 175.64 887.31 166.64 882.31 165.45C870.38 162.63 863.79 173.45 863.79 173.45C863.79 173.45 854.35 164.8 841.15 176.4C841.15 176.4 826.03 171.68 819.5 185.26C819.5 185.26 812.78 182.72 805.32 196.62C799.25 207.95 794.32 224.92 801.32 229.62C804.32 231.62 813.32 230.62 816.32 223.62C816.32 223.62 819.02 228.62 824.32 227.62C835.32 225.62 836.32 216.62 836.32 216.62C836.32 216.62 837.25 220.01 843.32 220.62C853.16 221.62 858.32 211.62 858.32 211.62C858.32 211.62 862.05 214.11 869.32 211.62C879.03 208.29 881.54 193.76 881.54 193.76L897.31 187.64Z"/>
</mask>
<path d="M897.31 187.64C895.31 175.64 887.31 166.64 882.31 165.45C870.38 162.63 863.79 173.45 863.79 173.45C863.79 173.45 854.35 164.8 841.15 176.4C841.15 176.4 826.03 171.68 819.5 185.26C819.5 185.26 812.78 182.72 805.32 196.62C799.25 207.95 794.32 224.92 801.32 229.62C804.32 231.62 813.32 230.62 816.32 223.62C816.32 223.62 819.02 228.62 824.32 227.62C835.32 225.62 836.32 216.62 836.32 216.62C836.32 216.62 837.25 220.01 843.32 220.62C853.16 221.62 858.32 211.62 858.32 211.62C858.32 211.62 862.05 214.11 869.32 211.62C879.03 208.29 881.54 193.76 881.54 193.76L897.31 187.64Z" fill="white" stroke="black" stroke-width="2" mask="url(#path-58-inside-6)"/>
<path d="M1275.96 350.621C1292.69 333.179 1289.99 303.419 1269.91 284.15C1249.83 264.881 1219.98 263.399 1203.24 280.841C1186.5 298.283 1189.21 328.042 1209.29 347.312C1229.37 366.581 1259.22 368.062 1275.96 350.621Z" fill="#DF382B"/>
<path d="M1188.31 321.64C1188.31 321.64 1223.31 299.64 1228.31 259.64" stroke="black" stroke-width="4" stroke-linecap="round" stroke-linejoin="round"/>
<path d="M1082.37 288.963C1090.78 262.433 1078.91 235.007 1055.87 227.706C1032.82 220.404 1007.33 235.992 998.92 262.522C990.514 289.052 1002.38 316.478 1025.43 323.779C1048.47 331.08 1073.97 315.492 1082.37 288.963Z" fill="#DF382B"/>
<path d="M1218.42 273.86C1217.51 270.69 1272.57 304.61 1261.42 315.86C1250.9 326.42 1223 289.88 1218.42 273.86Z" fill="#34A853"/>
<path d="M1218.86 275.83C1217.06 271.96 1264.53 223.49 1272.48 237C1280.12 250 1220.66 279.69 1218.86 275.83Z" fill="#34A853"/>
<mask id="path-64-inside-7" fill="white">
<path d="M1164.31 282.64C1151.31 278.64 1123.31 276.64 1107.31 274.64C1073.31 256.64 1082.31 209.64 1082.31 209.64C1084.31 208.64 1116.86 202.73 1112.37 177.31C1108.37 154.31 1081.3 154.31 1066.44 170.55C1066.44 170.55 1045.31 161.64 1039.31 132.64C1039.31 132.64 1021.47 134.69 1009.1 131.42C1006.41 143.31 1005.74 156.34 1003.31 169.64C1003.31 169.64 990.31 170.64 989.31 175.64C988.31 180.92 998.59 187.16 998.59 187.16C991.59 212.58 992.59 235.62 1008.31 244.64C1022.31 252.64 1039.31 249.64 1039.31 249.64L1037.31 273.64C1019.8 274.301 1002.54 278.024 986.31 284.64C953.12 298.16 875.31 349.64 875.31 349.64C881.31 329.64 905.92 266.56 915.31 226.64C919.31 209.64 923.31 193.64 913.31 192.64C902.37 191.54 886.31 225.64 886.31 225.64L818.31 250.64C778.22 304.87 731.31 427.64 792.31 458.64C847.31 486.64 970.31 418.64 970.31 418.64L959.31 518.64H1159.31L1204.31 305.64C1204.31 305.64 1204.5 305.44 1204.84 305.05C1190.78 292.89 1173.85 285.57 1164.31 282.64Z"/>
</mask>
<path d="M1164.31 282.64C1151.31 278.64 1123.31 276.64 1107.31 274.64C1073.31 256.64 1082.31 209.64 1082.31 209.64C1084.31 208.64 1116.86 202.73 1112.37 177.31C1108.37 154.31 1081.3 154.31 1066.44 170.55C1066.44 170.55 1045.31 161.64 1039.31 132.64C1039.31 132.64 1021.47 134.69 1009.1 131.42C1006.41 143.31 1005.74 156.34 1003.31 169.64C1003.31 169.64 990.31 170.64 989.31 175.64C988.31 180.92 998.59 187.16 998.59 187.16C991.59 212.58 992.59 235.62 1008.31 244.64C1022.31 252.64 1039.31 249.64 1039.31 249.64L1037.31 273.64C1019.8 274.301 1002.54 278.024 986.31 284.64C953.12 298.16 875.31 349.64 875.31 349.64C881.31 329.64 905.92 266.56 915.31 226.64C919.31 209.64 923.31 193.64 913.31 192.64C902.37 191.54 886.31 225.64 886.31 225.64L818.31 250.64C778.22 304.87 731.31 427.64 792.31 458.64C847.31 486.64 970.31 418.64 970.31 418.64L959.31 518.64H1159.31L1204.31 305.64C1204.31 305.64 1204.5 305.44 1204.84 305.05C1190.78 292.89 1173.85 285.57 1164.31 282.64Z" fill="white" stroke="black" stroke-width="2" mask="url(#path-64-inside-7)"/>
<path d="M1138.31 263H1038.2L1037.31 273.64C1029.51 273.86 1021.75 274.77 1014.11 276.36C1011.56 276.87 1008.86 277.47 1006.05 278.18C999.33 279.876 992.734 282.035 986.311 284.64C984.901 285.21 983.39 285.87 981.82 286.57C978.92 287.89 975.821 289.41 972.431 291.1C949.871 302.55 918.85 321.71 897.98 334.98L925.08 389.17L938.681 416.37L945.931 430.86C960.811 423.86 970.311 418.64 970.311 418.64L959.311 518.64H1159.31L1204.31 305.64C1206.71 302.963 1208.93 300.13 1210.96 297.16V296.87L1138.31 263Z" fill="#FFBE21"/>
<path d="M1039.31 132.64C1045.31 161.64 1066.44 170.55 1066.44 170.55C1081.3 154.34 1108.32 154.34 1112.37 177.31C1116.86 202.73 1084.31 208.64 1082.31 209.64C1082.31 209.64 1073.31 256.64 1107.31 274.64C1123.31 276.64 1151.31 278.64 1164.31 282.64C1173.85 285.57 1190.78 292.89 1204.84 305.05C1209.84 299.41 1247.9 253.58 1212.31 208.64C1187.6 177.42 1146.99 182.77 1146.99 182.77C1148.34 166.55 1150.99 124.67 1115.92 99C1080.85 73.33 1036.2 86.84 1019.99 107.11C1014.2 114.34 1011.09 122.57 1009.1 131.42C1021.47 134.69 1039.31 132.64 1039.31 132.64Z" fill="#DF382B"/>
<path d="M884.46 224.86C883.04 228.14 881.58 231.86 880.31 235.64C880.31 235.64 857.31 240.64 851.12 256.14" stroke="#30242A" stroke-width="4" stroke-miterlimit="10" stroke-linecap="round"/>
<path d="M878.19 347.66L866.31 378.78" stroke="#30242A" stroke-width="4" stroke-linecap="round" stroke-linejoin="round"/>
<path d="M972.31 381.64L968.15 419.06" stroke="#724342" stroke-width="4" stroke-linecap="round" stroke-linejoin="round"/>
<path d="M1035.31 252.64C1044.51 251.193 1053.48 248.564 1062 244.82" stroke="#30242A" stroke-width="4" stroke-miterlimit="10" stroke-linecap="round"/>
<path d="M1080 188L1093 180" stroke="#30242A" stroke-width="4" stroke-miterlimit="10" stroke-linecap="round"/>
<path d="M1148.51 182.35C1147.77 189.76 1146.77 199.03 1145.8 206.35" stroke="black" stroke-width="4" stroke-miterlimit="10" stroke-linecap="round"/>
<path d="M1075.21 200.16L1071.57 222.28C1071.41 223.252 1071.5 224.249 1071.84 225.175C1072.17 226.101 1072.74 226.925 1073.49 227.569C1074.23 228.212 1075.13 228.653 1076.1 228.849C1077.06 229.046 1078.06 228.991 1079 228.69L1098.48 222.44C1099.42 222.139 1100.26 221.602 1100.93 220.88C1101.61 220.158 1102.08 219.276 1102.31 218.318C1102.54 217.36 1102.53 216.359 1102.26 215.41C1101.99 214.461 1101.49 213.597 1100.79 212.9L1085 197C1084.25 196.237 1083.31 195.698 1082.27 195.443C1081.23 195.187 1080.14 195.226 1079.13 195.554C1078.11 195.882 1077.21 196.487 1076.51 197.3C1075.82 198.114 1075.37 199.104 1075.21 200.16Z" fill="#34A853"/>
<path d="M1028.44 194.58C1027.53 207.8 1013.91 208.7 1010.71 199.31L1028.44 194.58Z" stroke="#30242A" stroke-width="4" stroke-linecap="round" stroke-linejoin="round"/>
<path d="M1030.64 170.19C1028.22 171.38 1019.58 171.63 1016.78 164.72" stroke="#30242A" stroke-width="4" stroke-linecap="round" stroke-linejoin="round"/>
<mask id="path-76-inside-8" fill="white">
<path d="M1164.31 282.64L1164 444C1164 444 1065.7 385.15 1058.1 384.68C1052.51 384.33 1048.35 396.99 1058.44 407.45C1031.24 402.4 1004.21 399.75 999.96 408.03C997.4 413.03 1001.57 418.23 1001.57 418.23C998.31 418.64 995.13 419.5 993.31 421.64C988.94 426.77 994.94 434.64 994.94 434.64C989.4 437.31 991.31 445.64 996.31 449.64C1008.54 459.41 1045.18 466.39 1045.18 466.39C1032 468 1006.64 469.5 1008 477C1010 488 1066 488 1066 488C1087 502 1104.31 501.64 1104.31 501.64C1104.31 501.64 1155.59 554.28 1207.31 566.64C1340.31 589.64 1236.31 340.64 1208.31 308.64C1190.93 288.77 1164.31 282.64 1164.31 282.64Z"/>
</mask>
<path d="M1164.31 282.64L1164 444C1164 444 1065.7 385.15 1058.1 384.68C1052.51 384.33 1048.35 396.99 1058.44 407.45C1031.24 402.4 1004.21 399.75 999.96 408.03C997.4 413.03 1001.57 418.23 1001.57 418.23C998.31 418.64 995.13 419.5 993.31 421.64C988.94 426.77 994.94 434.64 994.94 434.64C989.4 437.31 991.31 445.64 996.31 449.64C1008.54 459.41 1045.18 466.39 1045.18 466.39C1032 468 1006.64 469.5 1008 477C1010 488 1066 488 1066 488C1087 502 1104.31 501.64 1104.31 501.64C1104.31 501.64 1155.59 554.28 1207.31 566.64C1340.31 589.64 1236.31 340.64 1208.31 308.64C1190.93 288.77 1164.31 282.64 1164.31 282.64Z" fill="white" stroke="black" stroke-width="2" mask="url(#path-76-inside-8)"/>
<path d="M1037.08 468.67C1044.08 468.6 1051.66 468.57 1059.31 468.67" stroke="#30242A" stroke-width="4" stroke-linecap="round" stroke-linejoin="round"/>
<path d="M994 436.91C1010.36 439.91 1039.26 445.44 1060.34 450.64" stroke="#30242A" stroke-width="4" stroke-linecap="round" stroke-linejoin="round"/>
<path d="M1000.58 418.71C1020.85 421.48 1049.95 425.71 1068.31 429.64" stroke="#30242A" stroke-width="4" stroke-linecap="round" stroke-linejoin="round"/>
<path d="M1060.61 406.27C1067.97 407.94 1075.22 410.067 1082.31 412.64" stroke="#30242A" stroke-width="4" stroke-linecap="round" stroke-linejoin="round"/>
<path d="M1228 344L1221.5 330.5L1220.5 329L1220 327.5L1217.5 323L1215.5 320L1214 317.5L1212 314.5C1210.56 312.279 1209.21 310.515 1207.5 308.5C1190.12 288.63 1164.27 282.64 1164.27 282.64L1147.5 344L1164.04 402.54L1164.27 415L1197.39 384.41L1162.5 416.5L1164.27 428.5L1254.66 408.35C1248.23 388.837 1240.73 369.691 1232.2 351L1228 344Z" fill="#FFBE21"/>
<path d="M1162 380.18V440.27" stroke="#724342" stroke-width="4" stroke-linecap="round" stroke-linejoin="round"/>
<path d="M1161.61 440.27C1161.61 440.27 1181 452 1211 470" stroke="#30242A" stroke-width="4" stroke-linecap="round" stroke-linejoin="round"/>
<path d="M817.35 186.13C814.63 196.22 812.21 210.43 814.26 225.01" stroke="#30242A" stroke-width="4" stroke-miterlimit="10" stroke-linecap="round"/>
<path d="M838.54 177.11C835.91 185.01 833.13 198.65 834.77 218.91" stroke="#30242A" stroke-width="4" stroke-miterlimit="10" stroke-linecap="round"/>
<path d="M861.61 173.27C858.75 181.66 854.92 194.83 856.55 211.65" stroke="#30242A" stroke-width="4" stroke-miterlimit="10" stroke-linecap="round"/>
<path d="M884.44 181.34C884.44 181.34 884.15 187.54 883.66 194.34" stroke="#30242A" stroke-width="4" stroke-miterlimit="10" stroke-linecap="round"/>
</g>
<defs>
<filter id="filter0_d" x="0.14502" y="0.640015" width="1310.12" height="943.212" filterUnits="userSpaceOnUse" color-interpolation-filters="sRGB">
<feFlood flood-opacity="0" result="BackgroundImageFix"/>
<feColorMatrix in="SourceAlpha" type="matrix" values="0 0 0 0 0 0 0 0 0 0 0 0 0 0 0 0 0 0 127 0"/>
<feOffset dy="4"/>
<feGaussianBlur stdDeviation="2"/>
<feColorMatrix type="matrix" values="0 0 0 0 0 0 0 0 0 0 0 0 0 0 0 0 0 0 0.25 0"/>
<feBlend mode="normal" in2="BackgroundImageFix" result="effect1_dropShadow"/>
<feBlend mode="normal" in="SourceGraphic" in2="effect1_dropShadow" result="shape"/>
</filter>
<filter id="filter1_d" x="322.306" y="274.592" width="77.5365" height="100.048" filterUnits="userSpaceOnUse" color-interpolation-filters="sRGB">
<feFlood flood-opacity="0" result="BackgroundImageFix"/>
<feColorMatrix in="SourceAlpha" type="matrix" values="0 0 0 0 0 0 0 0 0 0 0 0 0 0 0 0 0 0 127 0"/>
<feOffset dy="30"/>
<feGaussianBlur stdDeviation="2"/>
<feColorMatrix type="matrix" values="0 0 0 0 0 0 0 0 0 0 0 0 0 0 0 0 0 0 0.25 0"/>
<feBlend mode="normal" in2="BackgroundImageFix" result="effect1_dropShadow"/>
<feBlend mode="normal" in="SourceGraphic" in2="effect1_dropShadow" result="shape"/>
</filter>
</defs>
</svg>
