<svg width="28" height="28" viewBox="0 0 28 28" fill="none" xmlns="http://www.w3.org/2000/svg">
<g filter="url(#filter0_d)">
<path d="M21.6309 12.1349H6.369C5.93896 12.1349 5.59033 12.4835 5.59033 12.9136V19.1948H22.4096V12.9136C22.4096 12.4835 22.0609 12.1349 21.6309 12.1349Z" fill="#FA81A2"/>
<path d="M20.5728 12.1348H7.42627V7.8911C7.42627 7.46106 7.7749 7.11243 8.20494 7.11243H19.7941C20.2242 7.11243 20.5728 7.46106 20.5728 7.8911L20.5728 12.1348Z" fill="#FA81A2"/>
<path d="M21.6309 12.1348H6.369C5.93896 12.1348 5.59033 12.4835 5.59033 12.9135V14.6266C6.99189 14.6266 6.99189 15.561 8.39346 15.561C9.79498 15.561 9.79498 14.6266 11.1965 14.6266C12.598 14.6266 12.598 15.561 13.9996 15.561C15.4012 15.561 15.4012 14.6266 16.8028 14.6266C18.2045 14.6266 18.2045 15.561 19.6062 15.561C21.0079 15.561 21.0079 14.6266 22.4096 14.6266V12.9135C22.4096 12.4835 22.0609 12.1348 21.6309 12.1348Z" fill="#FA81A2"/>
<path d="M20.5728 7.89104C20.5728 7.461 20.2241 7.11237 19.7941 7.11237H8.20494C7.7749 7.11237 7.42627 7.461 7.42627 7.89104V9.38088C7.67178 9.50076 7.96771 9.58701 8.39303 9.58701C9.79455 9.58701 9.79455 8.6526 11.196 8.6526C12.5976 8.6526 12.5976 9.58701 13.9992 9.58701C15.4008 9.58701 15.4008 8.6526 16.8024 8.6526C18.2041 8.6526 18.2041 9.58701 19.6058 9.58701C20.0312 9.58701 20.3272 9.50069 20.5728 9.3808V7.89104V7.89104Z" fill="#FA81A2"/>
<path d="M10.9243 12.5253C10.8989 12.5253 10.8731 12.523 10.8481 12.5179C10.8231 12.5128 10.7985 12.5054 10.7751 12.4956C10.7513 12.4859 10.7286 12.4738 10.7075 12.4597C10.686 12.4453 10.6661 12.4288 10.6481 12.4109C10.6302 12.3929 10.6138 12.373 10.5997 12.3515C10.5856 12.3304 10.5735 12.3078 10.5638 12.2843C10.554 12.2605 10.5466 12.2359 10.5415 12.2113C10.5364 12.1859 10.5337 12.1601 10.5337 12.1347C10.5337 12.1093 10.5364 12.0835 10.5415 12.0585C10.5466 12.0335 10.554 12.0089 10.5638 11.9855C10.5735 11.9617 10.5856 11.939 10.5997 11.9179C10.6138 11.8964 10.6302 11.8765 10.6481 11.8585C10.6661 11.8406 10.686 11.8242 10.7075 11.8101C10.7286 11.796 10.7513 11.7839 10.7751 11.7742C10.7985 11.7644 10.8231 11.757 10.8481 11.7519C10.9751 11.7261 11.1099 11.7679 11.2005 11.8585C11.2185 11.8765 11.2349 11.8964 11.2493 11.9179C11.2634 11.939 11.2755 11.9617 11.2853 11.9855C11.295 12.0089 11.3024 12.0335 11.3075 12.0585C11.3126 12.0835 11.3149 12.1093 11.3149 12.1347C11.3149 12.1601 11.3126 12.1859 11.3075 12.2113C11.3024 12.2359 11.295 12.2605 11.2853 12.2843C11.2755 12.3078 11.2634 12.3304 11.2493 12.3515C11.2349 12.373 11.2185 12.3929 11.2005 12.4109C11.1278 12.4835 11.0271 12.5253 10.9243 12.5253Z" fill="#FFBE21"/>
<path d="M10.6408 4.89643C10.174 5.36326 9.41712 5.36326 8.95025 4.89643C8.58802 4.5342 8.49685 3.98143 8.72361 3.52206L9.79556 1.35034L10.8675 3.52206C11.0942 3.98143 11.0031 4.5342 10.6408 4.89643Z" fill="#FFBE21"/>
<path d="M14.8454 4.35137C14.3786 4.81821 13.6217 4.81821 13.1548 4.35137C12.7926 3.98914 12.7014 3.43637 12.9282 2.97699L14.0001 0.805237L15.0721 2.97696C15.2988 3.43633 15.2077 3.9891 14.8454 4.35137Z" fill="#FFBE21"/>
<path d="M19.0505 4.89643C18.5837 5.36326 17.8268 5.36326 17.3599 4.89643C16.9977 4.5342 16.9065 3.98143 17.1333 3.52206L18.2052 1.35034L19.2772 3.52206C19.5039 3.98143 19.4128 4.5342 19.0505 4.89643Z" fill="#FFBE21"/>
<path d="M23.6094 18.8041H22.8002V14.6266V12.9136C22.8002 12.2688 22.2757 11.7443 21.6309 11.7443H20.9639V9.3809V7.89113C20.9639 7.24641 20.4393 6.72184 19.7946 6.72184H18.5954V5.5877C18.8634 5.52004 19.1171 5.38188 19.3263 5.17266C19.8072 4.6918 19.928 3.95903 19.627 3.34914L18.5551 1.17746C18.4893 1.04414 18.3535 0.959729 18.2048 0.959729C18.0561 0.959729 17.9204 1.04414 17.8545 1.17746L16.7826 3.34918C16.4816 3.95899 16.6024 4.6918 17.0833 5.1727C17.2925 5.38192 17.5462 5.52008 17.8142 5.58774V6.72188H14.3906V5.04262C14.6586 4.97496 14.9123 4.8368 15.1215 4.62758C15.6024 4.14672 15.7232 3.41395 15.4222 2.80406L14.3503 0.632346C14.2845 0.499026 14.1487 0.414612 14 0.414612C13.8513 0.414612 13.7155 0.499026 13.6497 0.632346L12.5778 2.8041C12.2768 3.41395 12.3977 4.14672 12.8785 4.62758C13.0877 4.8368 13.3414 4.97496 13.6094 5.04262V6.72184H10.1858V5.58891C10.46 5.51977 10.7115 5.37781 10.9167 5.17266C11.3976 4.6918 11.5184 3.95899 11.2174 3.34914L10.1455 1.17742C10.0796 1.0441 9.94387 0.95969 9.7952 0.95969C9.64652 0.95969 9.51074 1.0441 9.44492 1.17742L8.37297 3.34918C8.07199 3.95899 8.19285 4.6918 8.67371 5.1727C8.87887 5.37785 9.13035 5.51981 9.40457 5.58895V6.72188H8.20543C7.56066 6.72188 7.03613 7.24641 7.03613 7.89117V9.38102V11.7443H6.36906C5.7243 11.7443 5.19977 12.2688 5.19977 12.9136V14.6266V18.8042H4.39062C4.17488 18.8042 4 18.9791 4 19.1948C4 19.4105 4.17488 19.5854 4.39062 19.5854H5.59039H22.4096H23.6094C23.8251 19.5854 24 19.4105 24 19.1948C24 18.9791 23.8251 18.8041 23.6094 18.8041ZM17.6357 4.62024C17.3917 4.37625 17.3304 4.00442 17.4832 3.69496L18.2048 2.23289L18.9265 3.69496C19.0793 4.00442 19.0179 4.37625 18.7739 4.62024C18.7198 4.67442 18.6594 4.7186 18.5955 4.75406C18.3533 4.88852 18.0565 4.88852 17.8143 4.75406C17.7503 4.7186 17.6899 4.67442 17.6357 4.62024ZM13.4309 4.07516C13.187 3.83117 13.1256 3.45934 13.2784 3.14989L14 1.68785L14.7217 3.14992C14.8744 3.45938 14.8131 3.83121 14.5691 4.0752C14.5149 4.12938 14.4546 4.17356 14.3907 4.20903C14.1485 4.34348 13.8516 4.34348 13.6094 4.20903C13.5455 4.17352 13.4851 4.12938 13.4309 4.07516ZM9.22613 4.62024C8.98211 4.37625 8.92082 4.00442 9.07355 3.69496L9.79523 2.23289L10.5169 3.69496C10.6696 4.00438 10.6083 4.37621 10.3643 4.62024C10.3102 4.67442 10.2498 4.7186 10.1859 4.75406C9.94371 4.88852 9.64687 4.88852 9.40465 4.75406C9.34066 4.7186 9.28031 4.67442 9.22613 4.62024ZM7.81738 7.8911C7.81738 7.67711 7.99148 7.50305 8.20543 7.50305H19.7946C20.0086 7.50305 20.1827 7.67711 20.1827 7.8911V9.1175C20.0105 9.17156 19.8251 9.19645 19.6063 9.19645C19.0237 9.19645 18.7579 9.01922 18.4213 8.79485C18.0466 8.54508 17.622 8.26203 16.8029 8.26203C15.9839 8.26203 15.5593 8.54508 15.1846 8.79485C14.8481 9.01922 14.5823 9.19645 13.9997 9.19645C13.4172 9.19645 13.1514 9.01922 12.8148 8.79485C12.4402 8.54512 12.0157 8.26203 11.1966 8.26203C10.3776 8.26203 9.95301 8.54512 9.5784 8.79485C9.24188 9.01922 8.97605 9.19645 8.39359 9.19645C8.17484 9.19645 7.98949 9.17152 7.81742 9.11754L7.81738 7.8911ZM22.019 18.8041H5.98102V15.0499C6.31313 15.111 6.52469 15.2518 6.77527 15.4188C7.14988 15.6686 7.57445 15.9516 8.39355 15.9516C9.21258 15.9516 9.63715 15.6686 10.0118 15.4188C10.3483 15.1945 10.6141 15.0172 11.1966 15.0172C11.7791 15.0172 12.0449 15.1945 12.3814 15.4188C12.7561 15.6686 13.1806 15.9516 13.9997 15.9516C14.8188 15.9516 15.2434 15.6686 15.618 15.4188C15.9545 15.1945 16.2204 15.0172 16.8029 15.0172C17.3855 15.0172 17.6513 15.1945 17.9879 15.4188C18.3625 15.6686 18.7871 15.9516 19.6062 15.9516C20.4254 15.9516 20.85 15.6686 21.2246 15.4188C21.4752 15.2518 21.6868 15.1109 22.019 15.0498V18.8041ZM22.019 14.2596C21.4454 14.3327 21.1012 14.5621 20.7913 14.7688C20.4547 14.9932 20.1888 15.1704 19.6062 15.1704C19.0237 15.1704 18.7579 14.9932 18.4212 14.7688C18.0466 14.5191 17.622 14.236 16.8029 14.236C15.9838 14.236 15.5592 14.5191 15.1846 14.7688C14.848 14.9932 14.5822 15.1704 13.9997 15.1704C13.4171 15.1704 13.1513 14.9932 12.8148 14.7688C12.4402 14.519 12.0156 14.236 11.1965 14.236C10.3775 14.236 9.95293 14.5191 9.57832 14.7688C9.2418 14.9932 8.97598 15.1704 8.39352 15.1704C7.81098 15.1704 7.54516 14.9932 7.20863 14.7688C6.89867 14.5621 6.55453 14.3327 5.98102 14.2596V12.9136C5.98102 12.6996 6.15512 12.5255 6.36906 12.5255H9.36691C9.58266 12.5255 9.75754 12.3506 9.75754 12.1349C9.75754 11.9191 9.58266 11.7443 9.36691 11.7443H7.81738V9.9227C7.99715 9.95945 8.18707 9.97777 8.39355 9.97777C9.21258 9.97777 9.63715 9.69469 10.0118 9.44496C10.3483 9.22059 10.6141 9.04336 11.1966 9.04336C11.7791 9.04336 12.0449 9.22059 12.3814 9.44496C12.7561 9.69469 13.1806 9.97777 13.9997 9.97777C14.8187 9.97777 15.2434 9.69469 15.618 9.44496C15.9545 9.22059 16.2204 9.04336 16.8029 9.04336C17.3855 9.04336 17.6513 9.22059 17.9879 9.44496C18.3625 9.69473 18.7871 9.97777 19.6062 9.97777C19.8128 9.97777 20.0028 9.95941 20.1826 9.92266V11.7443H12.4816C12.2659 11.7443 12.091 11.9191 12.091 12.1349C12.091 12.3506 12.2659 12.5255 12.4816 12.5255H21.6309C21.8449 12.5255 22.019 12.6996 22.019 12.9136V14.2596Z" fill="#FF1778"/>
<path d="M7.42676 18.3008C7.32363 18.3008 7.22285 18.259 7.1502 18.1863C7.13223 18.168 7.11582 18.1481 7.10176 18.127C7.0877 18.1055 7.07559 18.0828 7.06582 18.0594C7.05605 18.0359 7.04863 18.0113 7.04355 17.9863C7.03848 17.9609 7.03613 17.9356 7.03613 17.9102C7.03613 17.8844 7.03848 17.859 7.04355 17.8336C7.04863 17.8086 7.05605 17.784 7.06582 17.7606C7.07559 17.7371 7.0877 17.7145 7.10176 17.693C7.11582 17.6719 7.13223 17.652 7.1502 17.6336C7.24121 17.543 7.37598 17.5016 7.50293 17.527C7.52793 17.532 7.55254 17.5395 7.57598 17.5492C7.59941 17.559 7.62207 17.5711 7.64316 17.5852C7.66465 17.5996 7.68457 17.6156 7.70254 17.6336C7.7209 17.652 7.73691 17.6719 7.75137 17.693C7.76543 17.7145 7.77754 17.7371 7.7873 17.7606C7.79707 17.784 7.80449 17.8086 7.80957 17.8336C7.81465 17.859 7.81738 17.8844 7.81738 17.9102C7.81738 17.9356 7.81465 17.9609 7.80957 17.9863C7.80449 18.0113 7.79707 18.0359 7.7873 18.0594C7.77754 18.0828 7.76543 18.1055 7.75137 18.127C7.73691 18.1481 7.7209 18.168 7.70254 18.1863C7.68457 18.2043 7.66465 18.2203 7.64316 18.2348C7.62207 18.2488 7.59941 18.2609 7.57598 18.2707C7.55254 18.2805 7.52793 18.2879 7.50293 18.293C7.47754 18.2981 7.45215 18.3008 7.42676 18.3008Z" fill="#FABB05"/>
<path d="M11.625 17.1328C11.5996 17.1328 11.5738 17.1301 11.5488 17.125C11.5238 17.1199 11.4992 17.1125 11.4758 17.1027C11.452 17.093 11.4293 17.0809 11.4082 17.0668C11.3867 17.0524 11.3668 17.0363 11.3488 17.0184C11.3309 17.0004 11.3145 16.9801 11.3004 16.959C11.2863 16.9375 11.2742 16.9149 11.2645 16.8914C11.2547 16.868 11.2473 16.8434 11.2422 16.8184C11.2371 16.793 11.2344 16.7676 11.2344 16.7418C11.2344 16.7164 11.2371 16.691 11.2422 16.6656C11.2473 16.6406 11.2547 16.616 11.2645 16.5926C11.2742 16.5692 11.2863 16.5465 11.3004 16.525C11.3145 16.5039 11.3309 16.4836 11.3488 16.4656C11.3668 16.4477 11.3867 16.4313 11.4082 16.4172C11.4293 16.4031 11.452 16.391 11.4758 16.3813C11.4992 16.3715 11.5238 16.3641 11.5488 16.359C11.5992 16.3488 11.6512 16.3488 11.7016 16.359C11.7262 16.3641 11.7508 16.3715 11.7746 16.3813C11.798 16.391 11.8207 16.4031 11.8418 16.4172C11.8633 16.4313 11.8832 16.4477 11.9012 16.4656C11.9191 16.4836 11.9355 16.5039 11.95 16.525C11.9641 16.5465 11.9762 16.5692 11.9859 16.5926C11.9957 16.616 12.0031 16.6406 12.0082 16.6656C12.0133 16.691 12.0156 16.7164 12.0156 16.7418C12.0156 16.7676 12.0133 16.793 12.0082 16.8184C12.0031 16.8434 11.9957 16.868 11.9859 16.8914C11.9762 16.9149 11.9641 16.9375 11.95 16.959C11.9355 16.9801 11.9191 17.0004 11.9012 17.0184C11.8832 17.0363 11.8633 17.0524 11.8418 17.0668C11.8207 17.0809 11.798 17.093 11.7746 17.1027C11.7508 17.1125 11.7262 17.1199 11.7016 17.125C11.6762 17.1301 11.6504 17.1328 11.625 17.1328Z" fill="#FABB05"/>
<path d="M16.1416 18.3008C16.1162 18.3008 16.0904 18.2981 16.065 18.293C16.0404 18.2879 16.0158 18.2805 15.992 18.2707C15.9686 18.2609 15.9459 18.2488 15.9248 18.2348C15.9033 18.2207 15.8834 18.2043 15.8654 18.1863C15.8475 18.1684 15.8311 18.1481 15.8166 18.127C15.8025 18.1055 15.7904 18.0828 15.7807 18.0594C15.7709 18.0359 15.7635 18.0113 15.7584 17.9863C15.7533 17.9609 15.751 17.9356 15.751 17.9102C15.751 17.8844 15.7533 17.859 15.7584 17.8336C15.7635 17.8086 15.7709 17.784 15.7807 17.7606C15.7904 17.7371 15.8025 17.7145 15.8166 17.693C15.8311 17.6719 15.8475 17.652 15.8654 17.6336C15.8834 17.6156 15.9033 17.5996 15.9248 17.5852C15.9459 17.5711 15.9686 17.559 15.992 17.5492C16.0158 17.5395 16.0404 17.532 16.065 17.527C16.1154 17.5168 16.1674 17.5168 16.2178 17.527C16.2428 17.532 16.2674 17.5395 16.2908 17.5492C16.3146 17.559 16.3373 17.5711 16.3584 17.5852C16.3799 17.5996 16.3998 17.6156 16.4178 17.6336C16.4357 17.652 16.4521 17.6719 16.4662 17.693C16.4803 17.7145 16.4924 17.7371 16.5021 17.7606C16.5119 17.784 16.5193 17.8086 16.5244 17.8336C16.5295 17.859 16.5322 17.8844 16.5322 17.9102C16.5322 17.9356 16.5295 17.9609 16.5244 17.9863C16.5193 18.0113 16.5119 18.0359 16.5021 18.0594C16.4924 18.0828 16.4803 18.1055 16.4662 18.127C16.4521 18.1481 16.4357 18.1684 16.4178 18.1863C16.3451 18.259 16.2443 18.3008 16.1416 18.3008Z" fill="#FABB05"/>
<path d="M20.5737 17.366C20.5479 17.366 20.5226 17.3637 20.4972 17.3586C20.4722 17.3535 20.4476 17.3461 20.4241 17.3363C20.4007 17.3266 20.378 17.3145 20.3565 17.3004C20.3354 17.2859 20.3155 17.2699 20.2972 17.252C20.2792 17.2336 20.2632 17.2137 20.2487 17.1922C20.2347 17.1711 20.2226 17.1484 20.2128 17.125C20.203 17.1016 20.1956 17.077 20.1905 17.052C20.1854 17.0266 20.1831 17.0012 20.1831 16.9754C20.1831 16.95 20.1854 16.9242 20.1905 16.8992C20.1956 16.8742 20.203 16.8496 20.2128 16.8262C20.2226 16.8027 20.2347 16.7797 20.2487 16.7586C20.2632 16.7375 20.2792 16.7172 20.2972 16.6992C20.3702 16.6266 20.4706 16.5848 20.5737 16.5848C20.6765 16.5848 20.7769 16.6266 20.8499 16.6992C20.8679 16.7172 20.8843 16.7375 20.8983 16.7586C20.9124 16.7797 20.9245 16.8027 20.9343 16.8262C20.944 16.8496 20.9515 16.8742 20.9565 16.8992C20.9616 16.9242 20.9644 16.95 20.9644 16.9754C20.9644 17.0012 20.9616 17.0266 20.9565 17.052C20.9515 17.077 20.944 17.1012 20.9343 17.125C20.9245 17.1484 20.9124 17.1711 20.8983 17.1922C20.8843 17.2137 20.8679 17.2336 20.8499 17.252C20.7772 17.3246 20.6765 17.366 20.5737 17.366Z" fill="#FFBE21"/>
<path d="M16.6865 10.9813C16.6611 10.9813 16.6354 10.9785 16.6104 10.9735C16.5854 10.9684 16.5607 10.961 16.5373 10.9512C16.5135 10.9414 16.4908 10.9293 16.4697 10.9153C16.4482 10.9012 16.4283 10.8848 16.4104 10.8668C16.3924 10.8488 16.376 10.8289 16.3619 10.8074C16.3479 10.7863 16.3357 10.7633 16.326 10.7399C16.3162 10.7164 16.3088 10.6918 16.3037 10.6668C16.2986 10.6418 16.2959 10.616 16.2959 10.5906C16.2959 10.5653 16.2986 10.5395 16.3037 10.5141C16.3088 10.4895 16.3162 10.4649 16.326 10.441C16.3357 10.4176 16.3479 10.3949 16.3619 10.3739C16.376 10.3524 16.3924 10.3324 16.4104 10.3145C16.4283 10.2961 16.4482 10.2801 16.4697 10.2656C16.4908 10.2516 16.5135 10.2395 16.5373 10.2297C16.5607 10.2199 16.5854 10.2125 16.6104 10.2074C16.6607 10.1973 16.7127 10.1973 16.7631 10.2074C16.7877 10.2125 16.8123 10.2199 16.8361 10.2297C16.8596 10.2395 16.8822 10.2516 16.9033 10.2656C16.9248 10.2801 16.9447 10.2961 16.9627 10.3145C16.9807 10.3324 16.9971 10.3524 17.0115 10.3739C17.0256 10.3949 17.0377 10.4176 17.0475 10.441C17.0572 10.4649 17.0646 10.4895 17.0697 10.5141C17.0748 10.5395 17.0771 10.5653 17.0771 10.5906C17.0771 10.616 17.0748 10.6418 17.0697 10.6668C17.0646 10.6918 17.0572 10.7164 17.0475 10.7399C17.0377 10.7633 17.0256 10.7863 17.0115 10.8074C16.9971 10.8289 16.9807 10.8488 16.9627 10.8668C16.9447 10.8848 16.9248 10.9012 16.9033 10.9153C16.8822 10.9293 16.8596 10.9414 16.8361 10.9512C16.8123 10.961 16.7877 10.9684 16.7631 10.9735C16.7377 10.9785 16.7119 10.9813 16.6865 10.9813Z" fill="#FABB05"/>
<path d="M11.5864 10.4492C11.5606 10.4492 11.5353 10.4465 11.5099 10.4414C11.4849 10.4363 11.4603 10.4289 11.4368 10.4191C11.4134 10.4094 11.3907 10.3973 11.3692 10.3832C11.3481 10.3688 11.3282 10.3527 11.3099 10.3348C11.2919 10.3164 11.2759 10.2965 11.2614 10.2754C11.2474 10.2539 11.2353 10.2313 11.2255 10.2078C11.2157 10.1844 11.2083 10.1598 11.2032 10.1348C11.1981 10.1094 11.1958 10.084 11.1958 10.0586C11.1958 10.0328 11.1981 10.0074 11.2032 9.98204C11.2083 9.95704 11.2157 9.93243 11.2255 9.90899C11.2353 9.88556 11.2474 9.8629 11.2614 9.84142C11.2759 9.82032 11.2919 9.80001 11.3099 9.78204C11.3282 9.76407 11.3481 9.74767 11.3692 9.7336C11.3907 9.71954 11.4134 9.70743 11.4368 9.69767C11.4603 9.6879 11.4849 9.68048 11.5099 9.6754C11.5603 9.66525 11.6122 9.66525 11.6626 9.6754C11.6876 9.68048 11.7122 9.6879 11.7356 9.69767C11.7591 9.70743 11.7817 9.71954 11.8032 9.7336C11.8243 9.74767 11.8446 9.76407 11.8626 9.78204C11.8806 9.80001 11.897 9.82032 11.911 9.84142C11.9251 9.8629 11.9372 9.88556 11.947 9.90899C11.9567 9.93243 11.9642 9.95704 11.9692 9.98204C11.9743 10.0074 11.9767 10.0328 11.9767 10.0586C11.9767 10.084 11.9743 10.1094 11.9692 10.1348C11.9642 10.1598 11.9567 10.1844 11.947 10.2078C11.9372 10.2313 11.9251 10.2539 11.911 10.2754C11.8966 10.2965 11.8806 10.3164 11.8626 10.3348C11.8446 10.3527 11.8243 10.3688 11.8032 10.3832C11.7817 10.3973 11.7591 10.4094 11.7356 10.4191C11.7122 10.4289 11.6876 10.4363 11.6626 10.4414C11.6376 10.4465 11.6118 10.4492 11.5864 10.4492Z" fill="#FABB05"/>
</g>
<defs>
<filter id="filter0_d" x="0" y="0" width="28" height="28" filterUnits="userSpaceOnUse" color-interpolation-filters="sRGB">
<feFlood flood-opacity="0" result="BackgroundImageFix"/>
<feColorMatrix in="SourceAlpha" type="matrix" values="0 0 0 0 0 0 0 0 0 0 0 0 0 0 0 0 0 0 127 0" result="hardAlpha"/>
<feOffset dy="4"/>
<feGaussianBlur stdDeviation="2"/>
<feComposite in2="hardAlpha" operator="out"/>
<feColorMatrix type="matrix" values="0 0 0 0 0 0 0 0 0 0 0 0 0 0 0 0 0 0 0.15 0"/>
<feBlend mode="normal" in2="BackgroundImageFix" result="effect1_dropShadow"/>
<feBlend mode="normal" in="SourceGraphic" in2="effect1_dropShadow" result="shape"/>
</filter>
</defs>
</svg>
