<svg width="28" height="27" viewBox="0 0 28 27" fill="none" xmlns="http://www.w3.org/2000/svg">
<g filter="url(#filter0_d)">
<path d="M23.1016 5.27389H19.9891L19.6511 3.61968C19.5068 2.92379 19.1276 2.29871 18.5771 1.8493C18.0265 1.3999 17.3382 1.15354 16.6275 1.15155H11.3725C10.6617 1.15357 9.97331 1.40002 9.42275 1.84955C8.8722 2.29907 8.49304 2.9243 8.34891 3.6203L8.01094 5.27389H4.89844C4.66033 5.27418 4.43204 5.36887 4.26363 5.53719C4.09522 5.70552 4.00041 5.93375 4 6.17186V17.95C4.00025 18.1882 4.09498 18.4166 4.26342 18.585C4.43186 18.7534 4.66023 18.8482 4.89844 18.8484H23.1016C23.3398 18.8482 23.5681 18.7534 23.7366 18.585C23.905 18.4166 23.9998 18.1882 24 17.95V6.17186C23.9996 5.93375 23.9048 5.70552 23.7364 5.53719C23.568 5.36887 23.3397 5.27418 23.1016 5.27389ZM8.88484 3.72921C9.00341 3.15656 9.31535 2.64213 9.76832 2.27227C10.2213 1.9024 10.7877 1.69962 11.3725 1.69796H16.6275C17.2123 1.69962 17.7787 1.9024 18.2317 2.27227C18.6846 2.64213 18.9966 3.15656 19.1152 3.72921L19.4309 5.27405H18.7133L18.4264 3.86999C18.3407 3.4559 18.1151 3.08392 17.7875 2.81648C17.46 2.54904 17.0504 2.40242 16.6275 2.40124H11.3725C10.9496 2.40242 10.54 2.54904 10.2125 2.81648C9.88493 3.08392 9.65934 3.4559 9.57359 3.86999L9.28672 5.27405H8.56906L8.88484 3.72921ZM18.155 5.27389H9.845L10.1094 3.97936C10.1696 3.68863 10.3279 3.42745 10.5579 3.23967C10.7879 3.05189 11.0754 2.94894 11.3723 2.94811H16.6275C16.9244 2.94894 17.212 3.05189 17.4419 3.23967C17.6719 3.42745 17.8303 3.68863 17.8905 3.97936L18.155 5.27389ZM4.54688 6.17186C4.547 6.07866 4.58408 5.98931 4.64998 5.92341C4.71589 5.8575 4.80524 5.82042 4.89844 5.8203H23.1016C23.1948 5.82042 23.2841 5.8575 23.35 5.92341C23.4159 5.98931 23.453 6.07866 23.4531 6.17186V9.18749C23.4523 9.86065 23.1846 10.506 22.7086 10.982C22.2326 11.458 21.5872 11.7258 20.9141 11.7266H7.08594C6.41278 11.7258 5.76741 11.458 5.29142 10.982C4.81542 10.506 4.54766 9.86065 4.54688 9.18749V6.17186ZM17.8769 12.2734H19.3222V13.8672C19.3221 13.919 19.3016 13.9686 19.2649 14.0052C19.2283 14.0419 19.1787 14.0624 19.1269 14.0625H18.0722C18.0204 14.0624 17.9708 14.0418 17.9342 14.0052C17.8976 13.9686 17.877 13.9189 17.8769 13.8672V12.2734ZM8.67766 12.2734H10.123V13.8672C10.1229 13.919 10.1023 13.9686 10.0657 14.0052C10.0291 14.0419 9.97944 14.0624 9.92766 14.0625H8.87297C8.82119 14.0624 8.77156 14.0418 8.73495 14.0052C8.69834 13.9686 8.67774 13.9189 8.67766 13.8672V12.2734ZM23.4531 17.95C23.453 18.0432 23.4159 18.1325 23.35 18.1984C23.2841 18.2643 23.1948 18.3014 23.1016 18.3015H4.89844C4.80524 18.3014 4.71589 18.2643 4.64998 18.1984C4.58408 18.1325 4.547 18.0432 4.54688 17.95V10.9375C4.83014 11.3493 5.20926 11.686 5.65157 11.9187C6.09388 12.1515 6.58614 12.2732 7.08594 12.2734H8.13078V13.8672C8.13103 14.0639 8.2093 14.2526 8.34844 14.3917C8.48757 14.5308 8.6762 14.6091 8.87297 14.6094H9.92766C10.1244 14.6092 10.3131 14.5309 10.4522 14.3918C10.5914 14.2526 10.6696 14.064 10.6698 13.8672V12.2734H17.33V13.8672C17.3302 14.0639 17.4085 14.2526 17.5477 14.3917C17.6868 14.5308 17.8754 14.6091 18.0722 14.6094H19.1269C19.3237 14.6092 19.5123 14.5309 19.6515 14.3918C19.7906 14.2526 19.8689 14.064 19.8691 13.8672V12.2734H20.9141C21.4139 12.2732 21.9061 12.1515 22.3484 11.9187C22.7907 11.686 23.1699 11.3493 23.4531 10.9375V17.95Z" fill="#C4C4C4"/>
</g>
<defs>
<filter id="filter0_d" x="0" y="0" width="28" height="28" filterUnits="userSpaceOnUse" color-interpolation-filters="sRGB">
<feFlood flood-opacity="0" result="BackgroundImageFix"/>
<feColorMatrix in="SourceAlpha" type="matrix" values="0 0 0 0 0 0 0 0 0 0 0 0 0 0 0 0 0 0 127 0" result="hardAlpha"/>
<feOffset dy="4"/>
<feGaussianBlur stdDeviation="2"/>
<feComposite in2="hardAlpha" operator="out"/>
<feColorMatrix type="matrix" values="0 0 0 0 0 0 0 0 0 0 0 0 0 0 0 0 0 0 0.15 0"/>
<feBlend mode="normal" in2="BackgroundImageFix" result="effect1_dropShadow"/>
<feBlend mode="normal" in="SourceGraphic" in2="effect1_dropShadow" result="shape"/>
</filter>
</defs>
</svg>
